<svg width="48" height="48" viewBox="0 0 48 48" fill="none" xmlns="http://www.w3.org/2000/svg">
  <rect width="48" height="48" rx="14" fill="#FFFFFF"/>
  <path d="M24.14 11c3.4 0 6.08 1.4 7.69 2.57l-2.78 3.37c-1.18-.86-2.68-1.63-4.9-1.63-4.03 0-6.99 2.88-6.99 6.92 0 4.03 2.96 6.92 6.99 6.92 2.65 0 4.18-1.07 5.14-2.04.79-.79 1.31-1.94 1.52-3.5H24v-4.3h10.85c.11.6.2 1.33.2 2.15 0 2.58-.69 5.77-2.94 8.02-2.17 2.33-4.95 3.55-8.47 3.55-6.66 0-11.95-5.05-11.95-11.73C11.69 16.05 17.48 11 24.14 11Z" fill="#4285F4"/>
  <path d="M13.64 19.52l-3.7-2.7C12.07 13.4 17.61 10 24.14 10c3.4 0 6.08 1.36 7.69 2.53l-2.78 3.37c-1.18-.86-2.68-1.6-4.9-1.6-4.03 0-6.99 2.66-6.99 6.42 0 .3.02.6.06.88l-3.58-2.08Z" fill="#EA4335"/>
  <path d="M24.13 38c-6.2 0-11.49-4.42-12.96-10.37l3.83-1.95c.77 3.16 3.67 6.42 9.13 6.42 2.65 0 4.18-1.02 5.14-1.99l4.07 2.6C31.99 36.45 28.63 38 24.13 38Z" fill="#34A853"/>
  <path d="M36.8 19.88c.11.6.21 1.33.21 2.15 0 2.58-.69 5.77-2.94 8.02l-4.05-2.64c.53-.53.97-1.29 1.18-2.34H24v-4.33h12.8Z" fill="#FBBC05"/>
</svg>
