<svg width="48" height="48" viewBox="0 0 48 48" fill="none" xmlns="http://www.w3.org/2000/svg">
  <rect width="48" height="48" rx="14" fill="url(#paint0_linear_1_1)"/>
  <path d="M24 11.5c3.57 0 6.64 2.09 8.07 5.1a7.26 7.26 0 014.26 9.32c1.96 1.33 3.17 3.58 3.17 6.05 0 4.11-3.33 7.44-7.44 7.44-2.14 0-4.07-.9-5.44-2.34A7.28 7.28 0 0124 38.5c-3.57 0-6.64-2.09-8.07-5.1a7.26 7.26 0 01-4.26-9.32C9.7 22.75 8.5 20.5 8.5 18.03c0-4.11 3.33-7.44 7.44-7.44 2.14 0 4.07.9 5.44 2.34A7.28 7.28 0 0124 11.5Z" fill="white" fill-opacity="0.12"/>
  <path d="M18.1 19.3l-2.6 1.45a5.68 5.68 0 107.74 7.74l2.45 1.35a5.68 5.68 0 005.11 10.1 5.68 5.68 0 00-2.63-10.82l.02-2.8a5.68 5.68 0 10-7.88-7.88l-2.2-1.24a5.68 5.68 0 10-5.08 10.03l.07-2.63a5.68 5.68 0 102.99-5.24Z" fill="white"/>
  <defs>
    <linearGradient id="paint0_linear_1_1" x1="7" y1="7" x2="43" y2="43" gradientUnits="userSpaceOnUse">
      <stop stop-color="#14B082"/>
      <stop offset="1" stop-color="#0E8F68"/>
    </linearGradient>
  </defs>
</svg>
